<?xml version="1.0" standalone="no"?>
<!DOCTYPE svg PUBLIC "-//W3C//DTD SVG 20010904//EN"
 "http://www.w3.org/TR/2001/REC-SVG-20010904/DTD/svg10.dtd">
<svg version="1.0" xmlns="http://www.w3.org/2000/svg"
 width="1000.000000pt" height="1000.000000pt" viewBox="0 0 1000.000000 1000.000000"
 preserveAspectRatio="xMidYMid meet">
<metadata>
Created by potrace 1.11, written by Peter Selinger 2001-2013
</metadata>
<g transform="translate(0.000000,1000.000000) scale(0.100000,-0.100000)"
fill="#000000" stroke="none">
<path d="M1251 9944 c-116 -58 -186 -216 -212 -479 -18 -183 -5 -1371 21
-1885 130 -2583 586 -4818 1274 -6245 131 -272 346 -629 520 -865 260 -351
528 -469 1041 -457 426 10 590 69 811 293 220 221 385 525 624 1152 29 76 50
104 50 66 0 -44 177 -428 257 -559 263 -427 531 -755 679 -833 95 -49 212 -66
419 -58 164 5 324 25 380 46 44 17 152 128 225 230 376 528 941 1871 1289
3064 159 541 262 1023 290 1353 l11 123 -64 92 c-35 51 -147 225 -250 386
-345 542 -521 787 -671 930 -121 117 -175 138 -243 94 -45 -29 -54 -66 -63
-245 -33 -692 -433 -2348 -768 -3186 -93 -231 -233 -493 -291 -546 -21 -19
-22 -17 -151 111 -267 264 -419 465 -573 753 -42 78 -160 310 -263 514 -202
405 -261 506 -330 567 -85 75 -140 53 -236 -93 -74 -110 -136 -220 -395 -697
-292 -538 -668 -1199 -682 -1200 -11 0 -104 175 -154 291 -413 958 -658 2655
-633 4389 4 239 11 534 17 655 l11 220 -83 75 c-157 140 -410 395 -572 575
-242 268 -396 456 -774 943 -116 149 -244 312 -284 361 l-73 90 -51 0 c-35 1
-66 -7 -103 -25z"/>
</g>
</svg>
